<?xml version="1.0" encoding="utf-8"?>
<!-- Generator: Adobe Illustrator 20.0.0, SVG Export Plug-In . SVG Version: 6.00 Build 0)  -->
<svg version="1.1" id="Layer_1" xmlns="http://www.w3.org/2000/svg" xmlns:xlink="http://www.w3.org/1999/xlink" x="0px" y="0px"
	 viewBox="0 0 1046 324" style="enable-background:new 0 0 1046 324;" xml:space="preserve">
<style type="text/css">
	.st0{fill:none;stroke:#17A398;stroke-width:0.9652;stroke-opacity:0.3;}
	.st1{fill:none;stroke:#662C91;stroke-width:0.9652;stroke-opacity:0.3;}
	.st2{fill:none;stroke:#000000;stroke-width:1.0056;}
	.st3{fill:none;stroke:#EA4335;stroke-width:2;}
	.st4{font-family:'MyriadPro-Regular';}
	.st5{font-size:12px;}
	.st6{fill:none;stroke:#000000;stroke-width:1.0142;}
	.st7{fill:none;stroke:#662C91;stroke-width:2;stroke-opacity:0.3;}
	.st8{fill:none;stroke:#17A398;stroke-width:2;stroke-opacity:0.3;}
</style>
<g>
	<defs  xmlns="http://www.w3.org/1999/xhtml">
		<style  type="text/css">
			<![CDATA[
.words { font-size: 10pt; }
body { background-color: rgb(255, 172, 128); }]]>
		</style>
	</defs>
	<line class="st0" x1="676.9" y1="49.5" x2="485.3" y2="233"/>
	<line class="st0" x1="717.3" y1="49.5" x2="508.7" y2="233"/>
	<line class="st0" x1="808.8" y1="49.5" x2="319.3" y2="233"/>
	<line class="st0" x1="587.5" y1="49.5" x2="581.1" y2="233"/>
	<line class="st0" x1="662" y1="49.5" x2="342.7" y2="233"/>
	<line class="st0" x1="659.8" y1="49.5" x2="670.5" y2="233"/>
	<line class="st0" x1="553.4" y1="49.5" x2="625.8" y2="233"/>
	<line class="st0" x1="798.2" y1="49.5" x2="551.3" y2="233"/>
	<line class="st0" x1="719.4" y1="49.5" x2="636.4" y2="233"/>
	<line class="st0" x1="710.9" y1="49.5" x2="506.6" y2="233"/>
	<line class="st0" x1="521.5" y1="49.5" x2="319.3" y2="233"/>
	<line class="st0" x1="745" y1="49.5" x2="547" y2="233"/>
	<line class="st0" x1="791.8" y1="49.5" x2="417.2" y2="233"/>
	<line class="st0" x1="659.8" y1="49.5" x2="491.7" y2="233"/>
	<line class="st0" x1="740.7" y1="49.5" x2="672.6" y2="233"/>
	<line class="st0" x1="836.5" y1="49.5" x2="621.5" y2="233"/>
	<line class="st0" x1="715.2" y1="49.5" x2="698.2" y2="233"/>
	<line class="st0" x1="587.5" y1="49.5" x2="591.7" y2="233"/>
	<line class="st0" x1="702.4" y1="49.5" x2="300.1" y2="233"/>
	<line class="st0" x1="740.7" y1="49.5" x2="704.5" y2="233"/>
	<line class="st0" x1="728" y1="49.5" x2="427.8" y2="233"/>
	<line class="st0" x1="610.9" y1="49.5" x2="474.7" y2="233"/>
	<line class="st0" x1="764.1" y1="49.5" x2="600.2" y2="233"/>
	<line class="st0" x1="723.7" y1="49.5" x2="579" y2="233"/>
	<line class="st0" x1="691.8" y1="49.5" x2="212.9" y2="233"/>
	<line class="st0" x1="702.4" y1="49.5" x2="447" y2="233"/>
	<line class="st0" x1="672.6" y1="49.5" x2="621.5" y2="233"/>
	<line class="st0" x1="493.8" y1="49.5" x2="453.4" y2="233"/>
	<line class="st0" x1="789.7" y1="49.5" x2="449.1" y2="233"/>
	<line class="st0" x1="747.1" y1="49.5" x2="644.9" y2="233"/>
	<line class="st0" x1="672.6" y1="49.5" x2="459.8" y2="233"/>
	<line class="st0" x1="968.5" y1="49.5" x2="555.5" y2="233"/>
	<line class="st0" x1="417.2" y1="49.5" x2="344.8" y2="233"/>
	<line class="st0" x1="530" y1="49.5" x2="662" y2="233"/>
	<line class="st0" x1="636.4" y1="49.5" x2="532.1" y2="233"/>
	<line class="st0" x1="783.3" y1="49.5" x2="451.3" y2="233"/>
	<line class="st0" x1="823.7" y1="49.5" x2="240.5" y2="233"/>
	<line class="st0" x1="704.5" y1="49.5" x2="502.3" y2="233"/>
	<line class="st0" x1="849.3" y1="49.5" x2="329.9" y2="233"/>
	<line class="st0" x1="787.6" y1="49.5" x2="527.9" y2="233"/>
	<line class="st0" x1="681.1" y1="49.5" x2="483.2" y2="233"/>
	<line class="st0" x1="474.7" y1="49.5" x2="468.3" y2="233"/>
	<line class="st0" x1="759.9" y1="49.5" x2="415.1" y2="233"/>
	<line class="st0" x1="657.7" y1="49.5" x2="561.9" y2="233"/>
	<line class="st0" x1="715.2" y1="49.5" x2="404.4" y2="233"/>
	<line class="st0" x1="655.6" y1="49.5" x2="315" y2="233"/>
	<line class="st0" x1="683.3" y1="49.5" x2="440.6" y2="233"/>
	<line class="st0" x1="710.9" y1="49.5" x2="419.3" y2="233"/>
	<line class="st0" x1="662" y1="49.5" x2="513" y2="233"/>
	<line class="st0" x1="351.2" y1="49.5" x2="368.2" y2="233"/>
	<line class="st0" x1="779" y1="49.5" x2="481.1" y2="233"/>
	<line class="st0" x1="730.1" y1="49.5" x2="251.2" y2="233"/>
	<line class="st0" x1="725.8" y1="49.5" x2="464" y2="233"/>
	<line class="st1" x1="442.7" y1="49.5" x2="404.4" y2="233"/>
	<line class="st1" x1="670.5" y1="49.5" x2="719.4" y2="233"/>
	<line class="st1" x1="553.4" y1="49.5" x2="189.5" y2="233"/>
	<line class="st1" x1="466.2" y1="49.5" x2="408.7" y2="233"/>
	<line class="st1" x1="308.6" y1="49.5" x2="417.2" y2="233"/>
	<line class="st1" x1="329.9" y1="49.5" x2="638.6" y2="233"/>
	<line class="st1" x1="366.1" y1="49.5" x2="151.1" y2="233"/>
	<line class="st1" x1="166" y1="49.5" x2="604.5" y2="233"/>
	<line class="st1" x1="119.2" y1="49.5" x2="732.2" y2="233"/>
	<line class="st1" x1="364" y1="49.5" x2="585.3" y2="233"/>
	<line class="st1" x1="534.3" y1="49.5" x2="496" y2="233"/>
	<line class="st1" x1="442.7" y1="49.5" x2="295.9" y2="233"/>
	<line class="st1" x1="364" y1="49.5" x2="504.5" y2="233"/>
	<line class="st1" x1="327.8" y1="49.5" x2="434.2" y2="233"/>
	<line class="st1" x1="532.1" y1="49.5" x2="585.3" y2="233"/>
	<line class="st1" x1="344.8" y1="49.5" x2="547" y2="233"/>
	<line class="st1" x1="502.3" y1="49.5" x2="585.3" y2="233"/>
	<line class="st1" x1="559.8" y1="49.5" x2="585.3" y2="233"/>
	<line class="st1" x1="508.7" y1="49.5" x2="493.8" y2="233"/>
	<line class="st1" x1="485.3" y1="49.5" x2="634.3" y2="233"/>
	<line class="st1" x1="423.6" y1="49.5" x2="587.5" y2="233"/>
	<line class="st1" x1="419.3" y1="49.5" x2="579" y2="233"/>
	<line class="st1" x1="481.1" y1="49.5" x2="576.8" y2="233"/>
	<line class="st1" x1="342.7" y1="49.5" x2="561.9" y2="233"/>
	<line class="st1" x1="127.7" y1="49.5" x2="630" y2="233"/>
	<line class="st1" x1="404.4" y1="49.5" x2="708.8" y2="233"/>
	<line class="st1" x1="393.8" y1="49.5" x2="632.2" y2="233"/>
	<line class="st1" x1="451.3" y1="49.5" x2="453.4" y2="233"/>
	<line class="st1" x1="187.3" y1="49.5" x2="323.5" y2="233"/>
	<line class="st1" x1="525.8" y1="49.5" x2="596" y2="233"/>
	<line class="st1" x1="434.2" y1="49.5" x2="647.1" y2="233"/>
	<line class="st1" x1="493.8" y1="49.5" x2="368.2" y2="233"/>
	<line class="st1" x1="370.4" y1="49.5" x2="513" y2="233"/>
	<line class="st1" x1="521.5" y1="49.5" x2="359.7" y2="233"/>
	<line class="st1" x1="561.9" y1="49.5" x2="236.3" y2="233"/>
	<line class="st1" x1="370.4" y1="49.5" x2="481.1" y2="233"/>
	<line class="st1" x1="263.9" y1="49.5" x2="317.2" y2="233"/>
	<line class="st1" x1="323.5" y1="49.5" x2="353.3" y2="233"/>
	<line class="st1" x1="532.1" y1="49.5" x2="415.1" y2="233"/>
	<line class="st1" x1="80.9" y1="49.5" x2="459.8" y2="233"/>
	<line class="st1" x1="506.6" y1="49.5" x2="415.1" y2="233"/>
	<line class="st1" x1="127.7" y1="49.5" x2="527.9" y2="233"/>
	<line class="st1" x1="568.3" y1="49.5" x2="338.4" y2="233"/>
	<line class="st1" x1="334.2" y1="49.5" x2="459.8" y2="233"/>
	<line class="st1" x1="504.5" y1="49.5" x2="353.3" y2="233"/>
	<line class="st1" x1="530" y1="49.5" x2="534.3" y2="233"/>
	<line class="st1" x1="585.3" y1="49.5" x2="596" y2="233"/>
	<line class="st1" x1="300.1" y1="49.5" x2="502.3" y2="233"/>
	<line class="st1" x1="881.2" y1="49.5" x2="308.6" y2="233"/>
</g>
<line class="st2" x1="83.5" y1="233" x2="965.6" y2="233"/>
<line class="st3" x1="529.5" y1="251.3" x2="529.5" y2="15.2"/>
<text transform="matrix(1 0 0 1 526.6496 266.28)" class="st4 st5">0</text>
<text transform="matrix(1 0 0 1 73.6498 260.2797)" class="st4 st5">-5cm</text>
<text transform="matrix(1 0 0 1 955.6498 266.2797)" class="st4 st5">5cm</text>
<line class="st6" x1="80.9" y1="49.5" x2="965.6" y2="49.5"/>
<text transform="matrix(1 0 0 1 49.3772 53)" class="st4 st5">Men</text>
<text transform="matrix(1 0 0 1 32.7446 235)" class="st4 st5">Women</text>
<g>
	<g>
		<line class="st7" x1="489.6" y1="299.5" x2="459.8" y2="299.5"/>
		<text transform="matrix(1 0 0 1 496.6245 302.5073)" class="st4 st5">Africa</text>
	</g>
	<line class="st8" x1="569.6" y1="299" x2="539.8" y2="299"/>
	<text transform="matrix(1 0 0 1 576.6245 302.5073)" class="st4 st5">Asia</text>
</g>
</svg>
