<?xml version="1.0" encoding="utf-8"?>
<!-- Generator: Adobe Illustrator 20.1.0, SVG Export Plug-In . SVG Version: 6.00 Build 0)  -->
<svg version="1.1" id="Layer_1" xmlns="http://www.w3.org/2000/svg" xmlns:xlink="http://www.w3.org/1999/xlink" x="0px" y="0px"
	 viewBox="0 0 1116 555" style="enable-background:new 0 0 1116 555;" xml:space="preserve">
<style type="text/css">
	.st0{font-family:'Monaco';}
	.st1{font-size:10px;}
	.st2{fill:none;stroke:#000000;stroke-width:0.5;stroke-miterlimit:10;}
	.st3{fill:#466365;fill-opacity:0.4;}
	.st4{font-family:'MyriadPro-Regular';}
	.st5{font-size:12px;}
</style>
<defs  xmlns="http://www.w3.org/1999/xhtml">
	<style  type="text/css">
		<![CDATA[
.label { font-family: Inconsolata, "Lucida Console", Monaco, "DejaVu Sans Mono"; font-size: 10pt; }]]>
	</style>
</defs>
<text transform="matrix(1 0 0 1 67.0039 387.6)" class="st0 st1">London</text>
<text transform="matrix(1 0 0 1 43 235)" class="st0 st1">Manchester</text>
<text transform="matrix(1 0 0 1 61.0029 91)" class="st0 st1">Glasgow</text>
<line class="st2" x1="109.3" y1="495" x2="982.3" y2="495"/>
<line class="st2" x1="108.9" y1="495" x2="108.9" y2="65.3"/>
<text transform="matrix(1 0 0 1 434.7646 543.8107)" class="st0 st1">Mean amount owed to each employee (£)</text>
<text transform="matrix(1 0 0 1 108.8875 512.8107)" class="st0 st1">0</text>
<text transform="matrix(1 0 0 1 953.8875 513.8107)" class="st0 st1">6,000</text>
<text transform="matrix(1 0 0 1 668.2202 513.8107)" class="st0 st1">4,000</text>
<text transform="matrix(1 0 0 1 382.5529 513.8107)" class="st0 st1">2,000</text>
<g>
	<circle class="st3" cx="524.6" cy="344.5" r="5"/>
</g>
<g>
	<circle class="st3" cx="143.5" cy="320.5" r="5"/>
</g>
<g>
	<circle class="st3" cx="162.2" cy="320.5" r="5"/>
</g>
<g>
	<circle class="st3" cx="235.4" cy="163.6" r="5"/>
</g>
<g>
	<circle class="st3" cx="133.5" cy="163.6" r="5"/>
</g>
<g>
	<circle class="st3" cx="137.7" cy="379.9" r="5"/>
</g>
<g>
	<circle class="st3" cx="229.1" cy="189" r="5"/>
</g>
<g>
	<circle class="st3" cx="223.6" cy="408.1" r="5"/>
</g>
<g>
	<circle class="st3" cx="158.2" cy="269.5" r="5"/>
</g>
<g>
	<circle class="st3" cx="147.6" cy="334.5" r="5"/>
</g>
<g>
	<circle class="st3" cx="248.8" cy="336.4" r="5"/>
</g>
<g>
	<circle class="st3" cx="140.9" cy="336.4" r="5"/>
</g>
<g>
	<circle class="st3" cx="206.8" cy="252.3" r="5"/>
</g>
<g>
	<circle class="st3" cx="126.1" cy="252.3" r="5"/>
</g>
<g>
	<circle class="st3" cx="166.3" cy="252.3" r="5"/>
</g>
<g>
	<circle class="st3" cx="142.3" cy="252.3" r="5"/>
</g>
<g>
	<circle class="st3" cx="141.3" cy="104.1" r="5"/>
</g>
<g>
	<circle class="st3" cx="394" cy="395.8" r="5"/>
</g>
<g>
	<circle class="st3" cx="211.5" cy="337.1" r="5"/>
</g>
<g>
	<circle class="st3" cx="178.5" cy="337.1" r="5"/>
</g>
<g>
	<circle class="st3" cx="368.9" cy="235.4" r="5"/>
</g>
<g>
	<circle class="st3" cx="236.8" cy="235.4" r="5"/>
</g>
<g>
	<circle class="st3" cx="251.2" cy="65.3" r="5"/>
</g>
<g>
	<circle class="st3" cx="136.1" cy="65.3" r="5"/>
</g>
<g>
	<circle class="st3" cx="184.3" cy="466.6" r="5"/>
</g>
<g>
	<circle class="st3" cx="128.6" cy="465.3" r="5"/>
</g>
<g>
	<circle class="st3" cx="176.4" cy="465.3" r="5"/>
</g>
<g>
	<circle class="st3" cx="179.8" cy="465.3" r="5"/>
</g>
<g>
	<circle class="st3" cx="140.1" cy="459.2" r="5"/>
</g>
<g>
	<circle class="st3" cx="210.4" cy="440.4" r="5"/>
</g>
<g>
	<circle class="st3" cx="276.6" cy="436.2" r="5"/>
</g>
<g>
	<circle class="st3" cx="514.9" cy="434.6" r="5"/>
</g>
<g>
	<circle class="st3" cx="172.6" cy="434.6" r="5"/>
</g>
<g>
	<circle class="st3" cx="137.7" cy="432.3" r="5"/>
</g>
<g>
	<circle class="st3" cx="220.6" cy="430.5" r="5"/>
</g>
<g>
	<circle class="st3" cx="173.1" cy="428.6" r="5"/>
</g>
<g>
	<circle class="st3" cx="139.2" cy="424.7" r="5"/>
</g>
<g>
	<circle class="st3" cx="128.9" cy="406.6" r="5"/>
</g>
<g>
	<circle class="st3" cx="203" cy="403.8" r="5"/>
</g>
<g>
	<circle class="st3" cx="174.6" cy="403.2" r="5"/>
</g>
<g>
	<circle class="st3" cx="377.8" cy="402.4" r="5"/>
</g>
<g>
	<circle class="st3" cx="150" cy="400.7" r="5"/>
</g>
<g>
	<circle class="st3" cx="200.6" cy="399.1" r="5"/>
</g>
<g>
	<circle class="st3" cx="140.3" cy="399.1" r="5"/>
</g>
<g>
	<circle class="st3" cx="142.2" cy="396.7" r="5"/>
</g>
<g>
	<circle class="st3" cx="210.6" cy="396.6" r="5"/>
</g>
<g>
	<circle class="st3" cx="189.7" cy="394.2" r="5"/>
</g>
<g>
	<circle class="st3" cx="161.6" cy="393.9" r="5"/>
</g>
<g>
	<circle class="st3" cx="137.5" cy="393.2" r="5"/>
</g>
<g>
	<circle class="st3" cx="163.4" cy="392.2" r="5"/>
</g>
<g>
	<circle class="st3" cx="252" cy="391.3" r="5"/>
</g>
<g>
	<circle class="st3" cx="351" cy="391.3" r="5"/>
</g>
<g>
	<circle class="st3" cx="290.9" cy="391.3" r="5"/>
</g>
<g>
	<circle class="st3" cx="256.2" cy="391.3" r="5"/>
</g>
<g>
	<circle class="st3" cx="577.3" cy="387.6" r="5"/>
</g>
<g>
	<circle class="st3" cx="608.1" cy="387.6" r="5"/>
</g>
<g>
	<circle class="st3" cx="292.4" cy="387.6" r="5"/>
</g>
<g>
	<circle class="st3" cx="214.9" cy="387.6" r="5"/>
</g>
<g>
	<circle class="st3" cx="197.8" cy="387.6" r="5"/>
</g>
<g>
	<circle class="st3" cx="197.5" cy="387.6" r="5"/>
</g>
<g>
	<circle class="st3" cx="188.9" cy="387.6" r="5"/>
</g>
<g>
	<circle class="st3" cx="180.8" cy="387.6" r="5"/>
</g>
<g>
	<circle class="st3" cx="176.9" cy="387.6" r="5"/>
</g>
<g>
	<circle class="st3" cx="124.9" cy="387.6" r="5"/>
</g>
<g>
	<circle class="st3" cx="165.7" cy="387.6" r="5"/>
</g>
<g>
	<circle class="st3" cx="150.1" cy="387.6" r="5"/>
</g>
<g>
	<circle class="st3" cx="142.4" cy="387.6" r="5"/>
</g>
<g>
	<circle class="st3" cx="140.8" cy="387.6" r="5"/>
</g>
<g>
	<circle class="st3" cx="228.6" cy="386.7" r="5"/>
</g>
<g>
	<circle class="st3" cx="129.3" cy="384.3" r="5"/>
</g>
<g>
	<circle class="st3" cx="293.7" cy="382.9" r="5"/>
</g>
<g>
	<circle class="st3" cx="282.2" cy="379.8" r="5"/>
</g>
<g>
	<circle class="st3" cx="179.1" cy="379.8" r="5"/>
</g>
<g>
	<circle class="st3" cx="178" cy="379.3" r="5"/>
</g>
<g>
	<circle class="st3" cx="385.2" cy="376.7" r="5"/>
</g>
<g>
	<circle class="st3" cx="448.2" cy="374.2" r="5"/>
</g>
<g>
	<circle class="st3" cx="229.4" cy="372" r="5"/>
</g>
<g>
	<circle class="st3" cx="142.9" cy="372" r="5"/>
</g>
<g>
	<circle class="st3" cx="374.1" cy="370.9" r="5"/>
</g>
<g>
	<circle class="st3" cx="626.5" cy="368.5" r="5"/>
</g>
<g>
	<circle class="st3" cx="159.8" cy="367.1" r="5"/>
</g>
<g>
	<circle class="st3" cx="491.6" cy="366" r="5"/>
</g>
<g>
	<circle class="st3" cx="139.6" cy="361" r="5"/>
</g>
<g>
	<circle class="st3" cx="286.1" cy="357.7" r="5"/>
</g>
<g>
	<circle class="st3" cx="146.7" cy="355.3" r="5"/>
</g>
<g>
	<circle class="st3" cx="287.2" cy="350" r="5"/>
</g>
<g>
	<circle class="st3" cx="201.5" cy="344.6" r="5"/>
</g>
<g>
	<circle class="st3" cx="223.6" cy="337.4" r="5"/>
</g>
<g>
	<circle class="st3" cx="173.8" cy="337.4" r="5"/>
</g>
<g>
	<circle class="st3" cx="152" cy="337.2" r="5"/>
</g>
<g>
	<circle class="st3" cx="256.1" cy="333.1" r="5"/>
</g>
<g>
	<circle class="st3" cx="135.2" cy="328.1" r="5"/>
</g>
<g>
	<circle class="st3" cx="245.7" cy="326" r="5"/>
</g>
<g>
	<circle class="st3" cx="128.9" cy="326" r="5"/>
</g>
<g>
	<circle class="st3" cx="176.7" cy="326" r="5"/>
</g>
<g>
	<circle class="st3" cx="150.5" cy="326" r="5"/>
</g>
<g>
	<circle class="st3" cx="144.4" cy="326" r="5"/>
</g>
<g>
	<circle class="st3" cx="351.5" cy="325.5" r="5"/>
</g>
<g>
	<circle class="st3" cx="137.1" cy="325.5" r="5"/>
</g>
<g>
	<circle class="st3" cx="423.4" cy="320.5" r="5"/>
</g>
<g>
	<circle class="st3" cx="153.1" cy="320.1" r="5"/>
</g>
<g>
	<circle class="st3" cx="836.4" cy="319.2" r="5"/>
</g>
<g>
	<circle class="st3" cx="153.7" cy="318.7" r="5"/>
</g>
<g>
	<circle class="st3" cx="144.2" cy="318.2" r="5"/>
</g>
<g>
	<circle class="st3" cx="173.9" cy="313.7" r="5"/>
</g>
<g>
	<circle class="st3" cx="233.9" cy="313.6" r="5"/>
</g>
<g>
	<circle class="st3" cx="193" cy="310.6" r="5"/>
</g>
<g>
	<circle class="st3" cx="125.7" cy="310.6" r="5"/>
</g>
<g>
	<circle class="st3" cx="700.8" cy="310.4" r="5"/>
</g>
<g>
	<circle class="st3" cx="151.9" cy="310.2" r="5"/>
</g>
<g>
	<circle class="st3" cx="177.4" cy="310.2" r="5"/>
</g>
<g>
	<circle class="st3" cx="168.7" cy="310.2" r="5"/>
</g>
<g>
	<circle class="st3" cx="147.5" cy="310.2" r="5"/>
</g>
<g>
	<circle class="st3" cx="366.6" cy="307.1" r="5"/>
</g>
<g>
	<circle class="st3" cx="519.8" cy="305.4" r="5"/>
</g>
<g>
	<circle class="st3" cx="378.8" cy="302.3" r="5"/>
</g>
<g>
	<circle class="st3" cx="294.8" cy="293.6" r="5"/>
</g>
<g>
	<circle class="st3" cx="134.2" cy="290.6" r="5"/>
</g>
<g>
	<circle class="st3" cx="481.7" cy="290.6" r="5"/>
</g>
<g>
	<circle class="st3" cx="414" cy="290.6" r="5"/>
</g>
<g>
	<circle class="st3" cx="355.6" cy="290.6" r="5"/>
</g>
<g>
	<circle class="st3" cx="138.3" cy="290.6" r="5"/>
</g>
<g>
	<circle class="st3" cx="477.8" cy="284.4" r="5"/>
</g>
<g>
	<circle class="st3" cx="235" cy="281.4" r="5"/>
</g>
<g>
	<circle class="st3" cx="508.6" cy="275.2" r="5"/>
</g>
<g>
	<circle class="st3" cx="170.5" cy="272" r="5"/>
</g>
<g>
	<circle class="st3" cx="345.6" cy="267.8" r="5"/>
</g>
<g>
	<circle class="st3" cx="309.6" cy="263.1" r="5"/>
</g>
<g>
	<circle class="st3" cx="139" cy="257.3" r="5"/>
</g>
<g>
	<circle class="st3" cx="215.4" cy="257.1" r="5"/>
</g>
<g>
	<circle class="st3" cx="139.3" cy="257.1" r="5"/>
</g>
<g>
	<circle class="st3" cx="123.8" cy="254.5" r="5"/>
</g>
<g>
	<circle class="st3" cx="160.2" cy="254.2" r="5"/>
</g>
<g>
	<circle class="st3" cx="301" cy="254.2" r="5"/>
</g>
<g>
	<circle class="st3" cx="158.3" cy="251.8" r="5"/>
</g>
<g>
	<circle class="st3" cx="177.2" cy="247.9" r="5"/>
</g>
<g>
	<circle class="st3" cx="266.4" cy="247" r="5"/>
</g>
<g>
	<circle class="st3" cx="571.7" cy="245.7" r="5"/>
</g>
<g>
	<circle class="st3" cx="143.3" cy="245.7" r="5"/>
</g>
<g>
	<circle class="st3" cx="317.7" cy="244.6" r="5"/>
</g>
<g>
	<circle class="st3" cx="176.4" cy="244.6" r="5"/>
</g>
<g>
	<circle class="st3" cx="221.3" cy="241" r="5"/>
</g>
<g>
	<circle class="st3" cx="135.5" cy="241" r="5"/>
</g>
<g>
	<circle class="st3" cx="146.7" cy="240.5" r="5"/>
</g>
<g>
	<circle class="st3" cx="188.2" cy="238.4" r="5"/>
</g>
<g>
	<circle class="st3" cx="140.1" cy="238" r="5"/>
</g>
<g>
	<circle class="st3" cx="185" cy="237.3" r="5"/>
</g>
<g>
	<circle class="st3" cx="148.3" cy="237.2" r="5"/>
</g>
<g>
	<circle class="st3" cx="618.7" cy="237.1" r="5"/>
</g>
<g>
	<circle class="st3" cx="163.4" cy="234.2" r="5"/>
</g>
<g>
	<circle class="st3" cx="424" cy="234" r="5"/>
</g>
<g>
	<circle class="st3" cx="190.5" cy="233.6" r="5"/>
</g>
<g>
	<circle class="st3" cx="192.3" cy="233" r="5"/>
</g>
<g>
	<circle class="st3" cx="327.4" cy="233" r="5"/>
</g>
<g>
	<circle class="st3" cx="173" cy="230.7" r="5"/>
</g>
<g>
	<circle class="st3" cx="157.5" cy="230.7" r="5"/>
</g>
<g>
	<circle class="st3" cx="138.9" cy="230.7" r="5"/>
</g>
<g>
	<circle class="st3" cx="986.8" cy="230.4" r="5"/>
</g>
<g>
	<circle class="st3" cx="197.2" cy="230.4" r="5"/>
</g>
<g>
	<circle class="st3" cx="200" cy="229.2" r="5"/>
</g>
<g>
	<circle class="st3" cx="193.9" cy="229.2" r="5"/>
</g>
<g>
	<circle class="st3" cx="632.8" cy="227.4" r="5"/>
</g>
<g>
	<circle class="st3" cx="278.1" cy="221.7" r="5"/>
</g>
<g>
	<circle class="st3" cx="139" cy="219.5" r="5"/>
</g>
<g>
	<circle class="st3" cx="282.4" cy="217.3" r="5"/>
</g>
<g>
	<circle class="st3" cx="296.2" cy="217.3" r="5"/>
</g>
<g>
	<circle class="st3" cx="169.3" cy="187.3" r="5"/>
</g>
<g>
	<circle class="st3" cx="124.5" cy="180.8" r="5"/>
</g>
<g>
	<circle class="st3" cx="191.3" cy="177.6" r="5"/>
</g>
<g>
	<circle class="st3" cx="153.9" cy="177.3" r="5"/>
</g>
<g>
	<circle class="st3" cx="128.3" cy="177.3" r="5"/>
</g>
<g>
	<circle class="st3" cx="490.8" cy="176.2" r="5"/>
</g>
<g>
	<circle class="st3" cx="375.3" cy="174.7" r="5"/>
</g>
<g>
	<circle class="st3" cx="594.8" cy="168.9" r="5"/>
</g>
<g>
	<circle class="st3" cx="137.2" cy="154.5" r="5"/>
</g>
<g>
	<circle class="st3" cx="144.4" cy="154.5" r="5"/>
</g>
<g>
	<circle class="st3" cx="130.8" cy="148.8" r="5"/>
</g>
<g>
	<circle class="st3" cx="125.6" cy="147.4" r="5"/>
</g>
<g>
	<circle class="st3" cx="125.7" cy="147.4" r="5"/>
</g>
<g>
	<circle class="st3" cx="130.5" cy="139.1" r="5"/>
</g>
<g>
	<circle class="st3" cx="261.4" cy="116.7" r="5"/>
</g>
<g>
	<circle class="st3" cx="398.6" cy="116.7" r="5"/>
</g>
<g>
	<circle class="st3" cx="159.6" cy="108.1" r="5"/>
</g>
<g>
	<circle class="st3" cx="152.6" cy="90" r="5"/>
</g>
<g>
	<circle class="st3" cx="146" cy="88.9" r="5"/>
</g>
<g>
	<circle class="st3" cx="263.8" cy="88.9" r="5"/>
</g>
<g>
	<circle class="st3" cx="191.5" cy="88.9" r="5"/>
</g>
<g>
	<circle class="st3" cx="137.4" cy="88.9" r="5"/>
</g>
<g>
	<circle class="st3" cx="694.8" cy="87" r="5"/>
</g>
<g>
	<circle class="st3" cx="171.5" cy="86.3" r="5"/>
</g>
<g>
	<circle class="st3" cx="254.2" cy="82.8" r="5"/>
</g>
<g>
	<circle class="st3" cx="136" cy="82.8" r="5"/>
</g>
<g>
	<circle class="st3" cx="226.9" cy="82.8" r="5"/>
</g>
<g>
	<circle class="st3" cx="197.9" cy="82.8" r="5"/>
</g>
<g>
	<circle class="st3" cx="133.3" cy="82.8" r="5"/>
</g>
<g>
	<circle class="st3" cx="189.4" cy="79.4" r="5"/>
</g>
<g>
	<circle class="st3" cx="300.3" cy="65.3" r="5"/>
</g>
<text transform="matrix(6.123234e-17 -1 1 6.123234e-17 19.3521 334.4053)" class="st4 st5">Latitude  of named and shamed</text>
<text transform="matrix(1 0 0 1 807 113)" class="st0 st1">Highest mean amount owed:</text>
<text transform="matrix(1 0 0 1 807 127.4)" class="st0 st1">£6,309 by a plumbing company</text>
<text transform="matrix(1 0 0 1 807 141.8)" class="st0 st1">in Leeds</text>
<g>
	<g>
		<line class="st2" x1="889" y1="140.1" x2="976.8" y2="220.3"/>
		<g>
			<polygon points="974.2,222 980,223.3 978.2,217.6 			"/>
		</g>
	</g>
</g>
<g>
	<line class="st2" x1="254.7" y1="32.9" x2="254.7" y2="38.4"/>
	<line class="st2" x1="113.7" y1="32.9" x2="113.7" y2="38.4"/>
	<line class="st2" x1="113.7" y1="32.9" x2="254.7" y2="32.9"/>
</g>
<text transform="matrix(1 0 0 1 117 15.5)" class="st0 st1">73% owed less than</text>
<text transform="matrix(1 0 0 1 117 27.5)" class="st0 st1">£1,000</text>
</svg>
